<svg width="694" height="180" viewBox="0 0 694 180" fill="none" xmlns="http://www.w3.org/2000/svg">
<path d="M77.1923 1H83.0769L87.5769 1.34578L91.7308 1.92209L94.9615 2.61365L98.4231 3.651L101.538 4.91887L103.962 6.07147L106.731 7.68513L108.346 8.83773L110.192 10.2209V10.2209C111.345 11.0649 112.559 11.8212 113.824 12.4834L114.346 12.7566L116.538 13.5634L121.038 14.8313L129.115 16.6755L133.038 17.8281L136.038 18.9807L138.692 20.3638L140.077 21.2859L142.038 22.669L143.192 23.5911L145.154 25.5505L145.962 26.4726L147.462 28.2015L148.5 29.3542L149.769 30.9678L150.183 31.3811C150.214 31.4117 150.231 31.4532 150.231 31.4964V31.544C150.231 31.6077 150.282 31.6594 150.346 31.6594V31.6594C150.41 31.6594 150.462 31.711 150.462 31.7748V31.8018C150.462 31.8558 150.492 31.9051 150.54 31.9292L150.923 32.1204V32.1204C151.614 32.5805 152.345 32.9763 153.109 33.303L153.577 33.5035L157.038 34.6562L160.5 36.1545L163.385 37.7682L166.269 39.6124L167.654 40.6497L168.923 41.6871L171.346 44.1075L172.385 45.3754L173.538 46.7585L174.923 48.8332L176.077 50.9079L177.115 53.2131L178.038 55.9794L178.962 59.783L179.538 62.7798L179.769 64.8545L179.885 66.6986L180 71.4243V73.8448L179.654 80.2994L178.962 86.4082L178.269 91.2492L177.462 95.2833L176.423 99.3175L175.154 103.006L173.885 105.772L172.731 107.847L171.462 109.691L170.423 111.074L169.385 112.227L168.346 113.495L164.423 117.413L162.808 118.681L161.769 119.603L160.269 120.641L157.731 122.37L155.308 123.868L153.231 125.021L150.577 126.288L147.231 127.787L144.346 128.824V128.824C143.219 129.106 142.355 130.012 142.126 131.151L141.923 132.167L140.538 138.621L139.154 144.845L137.077 154.527L135.231 162.019L134.077 166.053L132.808 170.088L131.423 173.776L130.5 175.62L129.231 177.695L128.847 178.188C128.566 178.549 128.238 178.871 127.871 179.146V179.146C127.624 179.331 127.361 179.493 127.085 179.631L126.778 179.785C126.644 179.851 126.504 179.903 126.359 179.939V179.939C126.197 179.98 126.031 180 125.864 180H124.294C123.971 180 123.651 179.953 123.342 179.861V179.861C122.889 179.725 122.468 179.492 122.111 179.18V179.18C121.86 178.96 121.642 178.703 121.466 178.418L121.11 177.839C120.909 177.513 120.732 177.172 120.581 176.82L120.115 175.735L118.731 171.586L117.692 167.898L116.192 161.328L113.885 150.609L112.846 145.307L111 135.279L110.772 133.915C110.77 133.902 110.769 133.889 110.769 133.876V133.876C110.769 133.756 110.679 133.655 110.56 133.642L107.654 133.319L104.885 132.858L101.308 132.052L98.5385 131.245L95.7692 130.207L92.7692 128.939L90.2308 127.556L88.2692 126.404L86.0769 125.021L84 123.522L82.5 122.37L80.4231 120.871L76.0385 117.644L74.3077 116.491L71.3077 114.647L68.7692 113.033L65.8846 111.42L60.9231 108.769L57.5769 107.27L54.5769 106.003L49.6154 104.158L46.8462 103.236L42.2308 101.853L33.1154 99.4327L29.0769 98.2801L25.0385 97.0122L20.1923 95.0528L17.7692 93.9002L15.8077 92.7476L12.6923 90.6729L11.3077 89.6355L10.0385 88.4829L9.11538 87.6761L7.38462 85.9472L6.34615 84.6793L5.42308 83.5267L3.80769 81.1062L2.88462 79.3773L1.73077 76.4958L0.923077 73.7296L0.346154 70.6175L0 67.8513V63.9324L0.346154 60.5898L0.923077 58.1693L1.06396 57.7472C1.66159 55.9562 2.38568 54.2099 3.23077 52.5216V52.5216L4.61538 50.3316L5.42308 49.179L6.92308 46.9891L7.84615 45.8364L9.11538 43.9923L10.7308 41.226L12.2308 38.4598L13.3846 36.7308L14.8846 34.8867L15.6923 33.9646L16.7308 32.9272L18.6923 31.4288L20.1923 30.3915L22.6154 29.0084L24.8077 27.8558L28.9615 26.3574L33.2308 25.2048L36.4615 24.6285L39.5769 24.1674L43.1538 23.7064V23.7064C43.5138 23.6345 43.813 23.3857 43.9495 23.0449L43.9615 23.0148L44.6538 21.6317L45.4615 19.7875L46.6154 17.5976L47.5385 15.9839L47.8385 15.5642C48.4067 14.7696 49.0396 14.0233 49.7308 13.3329V13.3329L50.5385 12.4108L52.5 10.5666L54.2308 9.18352L55.9615 7.91565L58.2692 6.41726L60.8077 5.03413L63.2308 3.99678L65.6538 3.07469L69.4615 2.03735L73.0385 1.34578L75.2308 1.11526L77.1923 1ZM77.8846 7.56986L74.4231 7.91565L71.0769 8.60721L67.9615 9.5293L64.9615 10.7972L62.0769 12.1803L59.3077 13.9092L57.2308 15.4076L55.8462 16.4449L54.6923 17.4823L53.7692 18.2891L53.737 18.3249C53.0673 19.0682 52.4606 19.8658 51.9231 20.7096V20.7096L51.6329 21.3376C51.3658 21.9158 51.1676 22.5235 51.0425 23.1481L51.0134 23.2937C50.9278 23.7215 50.8846 24.1566 50.8846 24.5928V24.5928C50.8846 25.0762 50.9376 25.5581 51.0425 26.0299L51.134 26.4412C51.2751 27.0755 51.4751 27.6953 51.7313 28.2925L51.8699 28.6154C52.2123 29.4136 52.6272 30.1787 53.1094 30.9011L53.3077 31.1983V31.1983C53.9991 32.1193 54.7551 32.9899 55.5698 33.8038L58.5 36.7308L60 37.8835L61.1538 38.8055L63.1154 40.1887L65.0769 41.4565L68.0769 43.1854L71.7692 45.1449L74.0769 46.1822L77.1923 47.3348L80.4231 48.3722L82.4649 48.9549C82.7175 49.027 82.9575 49.1379 83.1761 49.2835L83.2921 49.3608C83.4552 49.4693 83.5986 49.6048 83.7162 49.7615L83.7752 49.8401C83.8477 49.9366 83.9041 50.0442 83.9423 50.1587V50.1587C83.9805 50.2732 84 50.3932 84 50.5139V50.7533C84 51.0839 83.9369 51.4114 83.814 51.7183L83.6405 52.1515C83.5728 52.3205 83.4806 52.4785 83.3669 52.6206V52.6206C83.1765 52.8583 82.9305 53.0453 82.6505 53.1652L82.5763 53.197C82.3728 53.2841 82.1572 53.3396 81.9369 53.3616L81.6413 53.3911C81.2921 53.426 80.9399 53.416 80.5933 53.3613L78.9231 53.0979L76.7308 52.6368L73.7308 51.83L70.8462 50.7927L67.5 49.2943L65.3077 48.1417L61.5 45.6059L59.8846 44.4533L58.0385 42.9549L56.7692 41.9176L55.1538 40.5345L53.8846 39.3818L52.2692 38.114L50.7692 36.9614V36.9614C49.5415 36.1949 48.2403 35.553 46.885 35.0453L46.1538 34.7714L43.0385 34.0798V34.0798C41.4251 33.8496 39.7975 33.7341 38.1678 33.7341H35.4231L32.7692 34.0798L29.3077 34.8867L26.6538 35.8088L25.7753 36.211C24.5168 36.7872 23.3059 37.462 22.1538 38.2292V38.2292L20.8846 39.2666L19.3846 40.765V40.765C18.6169 41.6853 17.9315 42.6713 17.3364 43.7116L17.3077 43.7618L16.5 45.6059L16.4211 45.8685C16.2433 46.4608 16.1152 47.067 16.0385 47.6806V47.6806V49.3792C16.0385 50.7032 16.1543 52.0246 16.3846 53.3284V53.3284V53.3284C16.8456 54.7865 17.4093 56.2101 18.0717 57.5885L18.4615 58.3999L19.3846 60.1288L20.7692 62.2035L22.3846 64.2782L24.5261 66.4174C24.5599 66.4512 24.5913 66.4873 24.62 66.5255L24.8611 66.8466C24.9001 66.8986 24.9613 66.9292 25.0263 66.9292V66.9292C25.1045 66.9292 25.1759 66.9733 25.2109 67.0433L25.333 67.287C25.3646 67.3503 25.4293 67.3902 25.5 67.3902V67.3902C25.5707 67.3902 25.6354 67.4302 25.667 67.4934L25.8067 67.7725C25.8309 67.8208 25.8803 67.8513 25.9343 67.8513V67.8513C26.0131 67.8513 26.0769 67.9151 26.0769 67.9939V68.0098C26.0769 68.0555 26.0967 68.099 26.1311 68.1292L27 68.8886L28.0385 69.8107L30.1154 71.3091L33.1154 73.2685L34.3846 74.0753L36.3462 75.2279L41.1923 77.6484L46.0385 79.7231L51.8077 81.9131L56.389 83.5095C56.6418 83.5976 56.885 83.7113 57.1146 83.849L57.2992 83.9596C57.7093 84.2054 58.0553 84.5449 58.3089 84.9502L58.4182 85.1249C58.4725 85.2118 58.5164 85.3047 58.5488 85.4019V85.4019C58.5929 85.534 58.6154 85.6724 58.6154 85.8118V85.9771C58.6154 86.3364 58.5316 86.6908 58.3708 87.0121L58.2386 87.2763C58.1065 87.5402 57.923 87.775 57.6989 87.9669L57.5255 88.1153C57.3327 88.2804 57.0984 88.3897 56.848 88.4314V88.4314C56.6442 88.4653 56.4354 88.4535 56.2367 88.3968L54.1154 87.7914L49.9615 86.4082L46.0385 85.0251L41.0769 83.1809L37.6154 81.6825L34.5 80.2994L31.6154 78.9163L30 78.1095L26.3077 75.8043L24.4615 74.5364L22.3846 72.9227L21.2308 71.8854L20.3077 71.0786L19.3846 70.1565L18.3462 68.8886L17.4231 67.8513L16.2692 66.2376L15 64.0476L14.0769 61.8577L13.5 60.3593L12.6923 57.132L12.2373 53.7231C12.233 53.6909 12.2214 53.6601 12.2034 53.6331V53.6331C12.1127 53.4973 11.9091 53.5099 11.836 53.656L11.1923 54.942L10.2692 57.2473L9.34615 60.1288L8.76923 62.7798L8.42308 65.8918V69.4649L8.76923 72.0006V72.0006C9.15254 73.6088 9.65468 75.1916 10.2692 76.7263V76.7263L11.1923 78.5705L11.3996 78.8983C12.1828 80.1371 13.0791 81.3007 14.0769 82.3741V82.3741L14.8846 83.2962L16.0385 84.4488L17.3077 85.4862L18.3462 86.293L20.5385 87.6761L22.9615 88.944L25.2692 89.9813L28.3846 91.1339L33.6923 92.7476L39.4615 94.3612L45.1154 96.2054L52.5 98.8564L58.5 101.046L63 102.775L66.4615 104.043L70.1538 105.196L74.4231 106.118L77.4231 106.579L80.5385 106.809H81.0914C82.3363 106.809 83.5793 106.713 84.8093 106.521V106.521C86.0372 106.329 87.2484 106.043 88.4321 105.665L89.5385 105.311L90.8077 104.85L91.9795 104.23C92.5051 103.952 93.0062 103.631 93.4776 103.268L93.6871 103.107C94.0743 102.81 94.4326 102.476 94.7573 102.112V102.112C95.0468 101.786 95.3084 101.437 95.5394 101.068L96.3462 99.7785V99.7785C96.8839 98.7041 97.3505 97.5756 97.7308 96.4359V96.4359L98.0769 94.8223L98.3077 92.5171V92.5171C98.3077 91.8264 98.2586 91.1366 98.1608 90.4528L97.9615 89.0592V89.0592C97.6543 87.9084 97.2568 86.7837 96.7726 85.6954L96.5769 85.2556L96.3871 84.9238C95.899 84.0705 95.3452 83.2566 94.7308 82.4894V82.4894L93.6923 81.3368L93.0937 80.8053C92.8024 80.5466 92.4712 80.3365 92.1131 80.1832V80.1832C91.9354 80.1071 91.752 80.0454 91.5645 79.9986L91.4822 79.978C91.1108 79.8853 90.7295 79.8384 90.3468 79.8384H84.4615L81.6923 79.7231L78.8077 79.3773L75.2308 78.5705L72.1154 77.5332L69.1154 76.2653L67.2692 75.3432L64.8462 74.0753L61.9615 72.3464L60.3462 71.1938L58.5 69.8107L57 68.5428L55.3846 67.275L53.8846 65.8918L51.6923 63.7019L50.8846 62.7798L49.5 61.3967L48.2308 59.783L46.8194 57.8697C46.6837 57.6856 46.5639 57.4902 46.4615 57.2856L46.2964 56.9558C46.1268 56.6169 46.0385 56.2431 46.0385 55.8641V55.698C46.0385 55.4283 46.1013 55.1622 46.2221 54.921V54.921C46.3293 54.7068 46.4797 54.5172 46.6637 54.3639L46.7349 54.3047C46.9606 54.1168 47.2219 53.9765 47.5032 53.8922L47.951 53.758C48.1365 53.7024 48.3292 53.6742 48.5228 53.6742V53.6742C48.861 53.6742 49.1936 53.7603 49.4893 53.9244L49.6079 53.9902C49.9171 54.1618 50.1867 54.3966 50.399 54.6794L51.1154 55.6336L52.5 57.593L53.8846 59.0914L54.6923 60.0135L57.183 62.5015C57.2136 62.5321 57.2551 62.5493 57.2983 62.5493H57.303C57.3906 62.5493 57.4615 62.6202 57.4615 62.7078V62.7078C57.4615 62.7535 57.4813 62.7971 57.5157 62.8272L58.3846 63.5866L60 64.9697L61.8462 66.3529L63.4615 67.5055L65.4231 68.7733L67.1538 69.8107L70.5 71.5396L73.2692 72.8075L77.0769 74.0753L80.0769 74.7669L82.7308 75.1127L83.8846 75.2279H85.1538L86.0712 75.1516C87.3038 75.049 88.526 74.8469 89.726 74.5472L90.1564 74.4397C91.1273 74.1972 92.0759 73.8729 92.9921 73.4702V73.4702C93.9952 73.0293 94.9552 72.4963 95.8598 71.878L96.6923 71.3091L97.7308 70.5023L99.5769 68.6581L100.615 67.3902L100.846 67.0708C101.691 65.9031 102.424 64.6596 103.038 63.3561V63.3561V63.3561C103.345 62.6671 103.565 61.9431 103.695 61.2002L103.772 60.7577C103.898 60.0324 103.962 59.2976 103.962 58.5614V58.3851C103.962 57.1701 103.812 55.9597 103.517 54.781L103.269 53.7894L102.346 51.4842L101.077 49.0637L99.9231 47.4501L98.6538 45.8364L97.3846 44.4533L96.5769 43.5312L94.2692 41.226L93.3462 40.4192L91.7308 39.0361L90.4615 38.114L88.5 36.7308L85.6154 34.8867L83.8846 33.7341L81.2308 32.2357L79.6154 31.4288L78.6867 30.8722C78.5372 30.7826 78.3992 30.675 78.2758 30.5518L78.2102 30.4862C77.9967 30.2729 77.8411 30.0087 77.7581 29.7185V29.7185C77.6894 29.4783 77.6721 29.2263 77.7075 28.979L77.7147 28.9284C77.7507 28.6766 77.8341 28.434 77.9604 28.2132L78.1989 27.7962C78.2201 27.7592 78.2376 27.7201 78.2511 27.6796V27.6796C78.3114 27.4989 78.4482 27.354 78.6251 27.2833L78.9231 27.1642L79.2759 27.032C79.653 26.8908 80.0524 26.8184 80.4551 26.8184V26.8184C80.816 26.8184 81.1746 26.8765 81.517 26.9906L83.0769 27.51L85.5 28.5473L88.5 30.161L90.6923 31.5441L92.3077 32.6967L93.8077 33.8493L94.9615 34.8867L95.8846 35.6935L96.396 36.2044C96.438 36.2463 96.4948 36.2698 96.5541 36.2698V36.2698C96.6388 36.2698 96.7162 36.3176 96.7542 36.3934L96.8714 36.6277C96.9031 36.6909 96.9677 36.7308 97.0385 36.7308V36.7308C97.1092 36.7308 97.1738 36.7708 97.2055 36.834L97.333 37.0887C97.3646 37.1519 97.4293 37.1919 97.5 37.1919V37.1919C97.5707 37.1919 97.6354 37.2318 97.667 37.2951L97.7981 37.557C97.8299 37.6205 97.8718 37.6785 97.9221 37.7288L98.8846 38.6903L99.9231 39.9581L100.846 40.9955L102.231 42.8397L104.192 45.8364L105.462 47.9111L106.962 50.6774L108.346 53.6742L109.385 55.6336L110.654 57.593L111.692 58.9762L113.192 60.8203L114.529 62.2672C114.56 62.3 114.603 62.3187 114.648 62.3187V62.3187C114.735 62.3187 114.808 62.3897 114.808 62.4773V62.4773C114.808 62.523 114.827 62.5665 114.862 62.5966L115.731 63.3561L117.346 64.7392L119.192 66.0071L120.923 66.9292L123.462 67.8513L125.308 68.3123L127.269 68.5428H128.538L130.5 68.3123L132.115 67.9665V67.9665C133.268 67.5828 134.392 67.1178 135.478 66.5751L135.692 66.4681L136.017 66.2735C136.953 65.7124 137.847 65.0841 138.692 64.3934V64.3934L139.962 63.1256L141.231 61.5119L142.385 59.8983L143.308 58.2846L144.462 55.7489L145.731 51.9453L146.308 49.0637L146.538 47.3348L146.654 45.4907V43.7618L146.308 40.8802L145.731 38.2292L145.154 36.3851L145.141 36.3558C144.535 34.9951 143.806 33.693 142.962 32.4662V32.4662L141.462 30.7373L140.423 29.6999L139.154 28.6626L137.769 27.6252L135.346 26.1269L132.231 24.5132L129.923 23.5911L125.769 22.3232L124.038 21.9775L120.482 21.4044C120.468 21.4022 120.455 21.4012 120.441 21.4012V21.4012C120.276 21.4012 120.154 21.5567 120.194 21.7172L120.217 21.8061C120.226 21.8432 120.242 21.8784 120.263 21.9101L122.423 25.0895L124.038 27.51L125.885 30.8525L127.038 32.9272L128.423 36.3851L129.577 39.3818L130.5 42.4939L131.448 45.9672C131.508 46.1869 131.548 46.4117 131.567 46.6387L131.608 47.1354C131.638 47.492 131.569 47.8499 131.409 48.1698V48.1698C131.342 48.3043 131.259 48.4305 131.163 48.546L131.106 48.6145C130.86 48.9089 130.542 49.1345 130.183 49.269V49.269C129.935 49.3619 129.672 49.4095 129.407 49.4095H128.824C128.56 49.4095 128.3 49.3482 128.065 49.2305V49.2305C127.845 49.1206 127.651 48.9644 127.498 48.7725L127.46 48.726C127.334 48.5679 127.232 48.3912 127.159 48.2022L126.692 46.9891L125.885 44.2228L124.962 41.6871L123.923 39.2666L122.769 36.7308L121.615 34.5409L120.115 31.7746L119.192 30.3915L117.808 28.4321L115.962 26.0116L114.923 24.6285L113.885 23.3606L112.154 21.5164L111.346 20.5943L109.962 19.0959L107.308 16.4449L106.038 15.4076V15.4076C105.117 14.6403 104.137 13.9453 103.109 13.3288L102.346 12.8719L100.154 11.7193L96.9231 10.4514L93.8077 9.41404L89.6538 8.37669L87.2308 7.91565L83.6538 7.56986H77.8846ZM153.522 40.8802C153.234 40.8802 153 41.1138 153 41.4019V45.8364L152.538 49.4095L151.846 52.4063L151.154 54.5963L149.885 57.593L148.846 59.5525L147.231 62.0882L146.077 63.4713L145.038 64.7392L143.769 66.1223L142.038 67.736L140.654 68.7733L137.885 70.6175L136.269 71.5396L134.308 72.3464L131.769 73.038L130.269 73.2685L126.923 73.3838L121.154 73.038H117.462L112.615 73.3838L109.962 73.7296L107.308 74.3059L105.692 74.8822L104.909 75.2736C104.509 75.4731 104.132 75.7143 103.783 75.9931V75.9931C103.365 76.3269 102.991 76.7122 102.67 77.1398L102.395 77.5071C102.209 77.7545 102.046 78.0181 101.907 78.2947L101.854 78.4004C101.721 78.6667 101.617 78.9468 101.545 79.2356V79.2356C101.464 79.5594 101.423 79.8919 101.423 80.2256V81.8026C101.423 82.4897 101.483 83.1754 101.603 83.852V83.852C101.714 84.4794 101.875 85.0967 102.086 85.698L102.577 87.0998L102.922 87.8188C103.614 89.2579 104.425 90.6368 105.346 91.9408V91.9408L106.615 93.3239L107.423 94.246L109.731 96.5512L112.269 98.6259L114.462 100.124L116.654 101.507L118.038 102.314L120.692 103.582L122.654 104.389L125.192 105.311L129 106.348L133.038 107.04L137.229 107.469C137.435 107.49 137.638 107.534 137.834 107.599L137.986 107.65C138.373 107.779 138.717 108.01 138.982 108.319L139.01 108.351C139.181 108.551 139.312 108.782 139.395 109.032V109.032C139.465 109.239 139.5 109.457 139.5 109.676V109.768C139.5 110.172 139.406 110.571 139.225 110.932L139.106 111.171C138.985 111.411 138.814 111.622 138.605 111.79L138.495 111.877C138.397 111.956 138.285 112.017 138.165 112.057V112.057C138.056 112.093 137.941 112.111 137.826 112.111H135.692L132.346 111.766L128.192 111.074L126.346 110.613L122.769 109.576L118.385 107.847L115.846 106.694L113.654 105.542L111.808 104.389L109.962 103.121L108.808 102.199L107.192 100.816L105.808 99.548L103.5 97.2428L102.63 96.1567C102.597 96.1146 102.546 96.0901 102.492 96.0901V96.0901C102.407 96.0901 102.334 96.1499 102.318 96.2328L102 97.8191L101.928 98.0346C101.515 99.2718 100.999 100.472 100.385 101.623V101.623L99.8291 102.501C99.2774 103.374 98.6526 104.198 97.9615 104.965V104.965L97.4025 105.524C96.3921 106.533 95.306 107.464 94.1538 108.308V108.308L93.7992 108.516C92.7295 109.145 91.6137 109.692 90.4615 110.152V110.152L88.1538 110.844L86.4231 111.189L83.8846 111.42L79.9615 111.305L79.153 111.242C78.8905 111.222 78.7305 111.525 78.895 111.731V111.731C78.9136 111.754 78.9356 111.774 78.9601 111.791L81.1154 113.264L83.3077 114.878L85.1538 116.261L87.2308 117.874L89.1923 119.258L91.1538 120.525L93.5769 121.909L96.6923 123.522L99.8077 124.79L102 125.482L105.692 126.404L108.692 126.865L112.731 127.211L114.692 127.326H115.149C115.807 127.326 116.358 127.824 116.423 128.478V128.478L118.038 137.123L120.231 148.534L121.962 156.948L122.885 161.097L124.385 167.437L125.192 170.318L125.363 170.83C125.395 170.925 125.503 170.97 125.593 170.925V170.925C125.632 170.905 125.662 170.871 125.675 170.83L127.385 165.708L128.769 160.751L130.615 153.26L132.923 142.425L134.192 135.855L135.801 127.359C135.806 127.337 135.808 127.315 135.808 127.292V127.292C135.808 127.113 135.676 126.961 135.499 126.936L135 126.865L131.308 126.634L128.077 126.058L125.192 125.366L122.769 124.675L119.538 123.407L116.654 122.139L112.5 120.064L109.385 118.22L106.615 116.607L105.848 116.119C105.515 115.907 105.213 115.65 104.951 115.355L104.755 115.135C104.535 114.889 104.364 114.604 104.248 114.296V114.296C104.135 113.995 104.077 113.676 104.077 113.354V113.018C104.077 112.723 104.125 112.43 104.218 112.15L104.339 111.787C104.394 111.622 104.488 111.471 104.611 111.347V111.347C104.788 111.17 105.019 111.057 105.268 111.026L105.418 111.007C105.674 110.976 105.934 111.007 106.174 111.1L106.933 111.391C107.182 111.487 107.423 111.603 107.653 111.739L109.846 113.033L112.615 114.647L116.654 116.607L119.308 117.759L124.269 119.488L127.269 120.18L130.731 120.756L134.538 121.102L137.885 120.986L140.192 120.756L143.769 120.064L147.462 118.912L150.923 117.298L153.923 115.454L155.538 114.301L156.808 113.379L158.423 111.996L161.308 109.115L162.115 108.193L163.269 106.925L164.192 105.772L165.462 104.274L166.615 102.66V102.66C167.384 101.509 168.067 100.303 168.66 99.053L168.808 98.7411L169.269 97.8191L170.308 95.0528L171.231 91.8255L172.038 87.9066L172.615 83.642L173.077 79.7231L173.102 79.4962C173.132 79.2274 172.807 79.0709 172.615 79.2621V79.2621L171.115 80.991L168.231 83.8725L166.731 85.0251L165.346 86.0625L164.192 86.8693L162.462 88.0219L160.615 89.0592L158.769 89.9813L157.154 90.6729L154.385 91.7102L150.923 92.7476L148.154 93.4392L145.038 93.9002L143.769 94.0155L140.077 94.1307L136.385 93.9002L132.808 93.3239L132.142 93.1466C130.281 92.6507 128.459 92.0165 126.692 91.2492V91.2492L124.731 90.3271L122.654 89.1745L120.692 87.7914L119.68 86.872C119.51 86.7175 119.365 86.5372 119.251 86.3377L119.204 86.2557C119.045 85.978 118.962 85.6637 118.962 85.3438V85.3438C118.962 85.0584 119.028 84.777 119.156 84.5218L119.399 84.0355C119.415 84.0037 119.429 83.9708 119.44 83.9371V83.9371C119.503 83.7481 119.639 83.592 119.817 83.503L120 83.4115L120.501 83.2239C120.78 83.1193 121.076 83.0657 121.374 83.0657V83.0657C121.76 83.0657 122.141 83.1555 122.487 83.3281L123.185 83.6766C123.446 83.807 123.697 83.957 123.935 84.1251L125.538 85.2556L127.5 86.4082L129.923 87.5609L133.038 88.5982L136.154 89.1745L139.038 89.405H141.923L144.923 89.1745L147.923 88.7135L151.385 87.7914L154.038 86.8693L157.038 85.6014L158.885 84.6793L160.962 83.5267L162.923 82.1436L164.308 81.1062L165.923 79.7231L167.077 78.6858L167.885 77.8789L168.692 76.8416V76.8416C169.384 76.0742 170.019 75.2577 170.592 74.3986L170.654 74.3059L171.808 72.4617L172.655 70.5999C172.859 70.1512 173.03 69.688 173.165 69.214V69.214C173.337 68.6142 173.452 67.9996 173.508 67.3783L173.538 67.0444V64.8545L173.308 62.434L172.846 59.8983L172.269 57.9388L171.115 55.1726L169.962 53.0979L169.411 52.3277C169.394 52.3047 169.368 52.291 169.34 52.291V52.291C169.298 52.291 169.263 52.3196 169.254 52.3597L168.577 55.4031L167.769 58.6304L166.846 61.3967L165.577 64.2782L164.654 65.7766V65.7766C164.039 66.6974 163.357 67.5708 162.612 68.3895L162.577 68.4276L161.769 69.3496L160.962 70.1565L160.038 70.9633L158.192 72.3464L156.817 73.2622C156.581 73.4194 156.325 73.5444 156.056 73.634V73.634C155.639 73.7731 155.197 73.8243 154.759 73.7845L154.496 73.7606C154.27 73.7401 154.05 73.6775 153.846 73.5759L153.519 73.4123C153.481 73.3935 153.44 73.3838 153.398 73.3838V73.3838C153.295 73.3838 153.202 73.326 153.156 73.2344L153 72.9227L152.781 72.5396C152.622 72.262 152.538 71.9476 152.538 71.6278V71.6278C152.538 71.3424 152.605 71.061 152.733 70.8058L152.777 70.7164C152.849 70.574 152.935 70.4396 153.034 70.3153L153.11 70.2209C153.267 70.0249 153.445 69.8468 153.641 69.69L154.5 69.0039L155.654 67.9665L155.804 67.8164C157.01 66.6121 158.117 65.3133 159.115 63.9324V63.9324L160.154 62.2035L161.192 60.3593L162.231 58.0541L163.154 55.2878L163.846 52.0605L164.295 48.9252C164.303 48.864 164.308 48.8022 164.308 48.7403V48.7403C164.308 48.4284 164.196 48.1268 163.993 47.8901L162.923 46.6433L162.115 45.7212V45.7212C161.117 44.7237 160.044 43.8039 158.905 42.9699L158.885 42.9549L158.307 42.6346C157.309 42.0807 156.267 41.6096 155.192 41.226V41.226L153.631 40.8918C153.595 40.8841 153.558 40.8802 153.522 40.8802V40.8802Z" fill="url(#paint0_linear_168_39)"/>
<path d="M229.3 3.97C230.47 3.97 231.64 3.97 232.9 3.97C256.03 5.94999 255.85 2.53 256.57 7.12C256.93 9.19 257.02 11.26 257.02 13.24C257.02 18.28 257.92 18.19 247.66 18.19C245.41 18.19 244.96 18.1 242.71 18.1C237.85 18.1 232.99 18.55 228.13 18.91C226.06 19 225.79 19.27 225.34 21.43C224.98 23.5 224.71 25.48 224.71 27.55C224.71 30.16 224.89 30.43 226.33 30.43C226.33 30.43 227.86 30.34 229.3 30.34C237.22 30.34 245.05 30.88 252.88 30.88C256.48 30.88 256.12 30.88 256.12 42.4C256.12 54.55 255.67 57.34 255.67 68.05C255.67 69.31 255.67 70.84 255.67 70.84C255.67 74.17 256.66 73.72 232.36 73.72C206.71 73.72 207.25 74.08 206.98 71.74C206.62 68.14 206.44 63.19 206.44 61.12C206.44 59.59 206.98 59.14 208.51 58.78C213.55 57.7 237.67 59.77 237.67 57.07C237.67 44.92 237.76 45.28 236.41 45.28C236.41 45.28 231.91 45.64 225.16 45.64C222.28 45.64 219.4 45.64 216.61 45.64C212.11 45.64 209.32 45.73 209.32 45.73C205.99 45.73 205.9 44.38 205.9 8.56C205.9 4.33 204.37 3.97 229.3 3.97ZM262.414 65.62C262.414 0.00999558 261.874 4.51 265.834 4.42C282.664 4.23999 289.504 3.88 289.504 3.88C305.794 3.88 314.704 13.78 314.704 24.94C314.704 32.59 309.934 40.42 302.824 43.57C298.594 45.55 294.004 46.27 289.324 46.63C279.154 47.44 280.594 45.37 280.594 52.12C280.594 55.54 280.504 59.05 280.504 62.47C280.504 67.33 280.774 70.75 280.774 70.75C280.774 72.37 280.054 73.09 278.254 73.09C278.254 73.09 273.574 73.09 271.684 73.09C267.454 73.09 264.214 73.36 264.214 73.36C262.144 73.36 262.414 72.28 262.414 65.62ZM280.414 26.83C280.414 31.24 279.424 30.07 290.674 30.07C291.934 30.07 293.014 30.07 293.014 30.07C295.894 30.07 296.794 27.19 296.794 25.39C296.794 22.96 294.724 19.9 292.024 19.9C280.144 19.9 280.324 19.9 280.324 21.34C280.324 21.34 280.414 24.67 280.414 26.83ZM320.07 16.84C320.07 13.33 320.25 9.82 320.43 6.22C320.43 5.14 320.97 4.51 321.87 4.51C321.87 4.51 323.49 4.68999 325.29 4.68999C355.89 4.68999 366.24 3.97 366.24 3.97C369.39 3.97 369.21 5.32 369.21 9.73C369.21 15.22 369.21 15.49 368.94 16.66C368.31 18.82 369.12 19.18 354.63 19.18C349.14 19.18 341.04 18.91 341.04 18.91C340.77 18.91 340.59 18.91 340.32 18.91C339.96 18.91 339.51 18.91 339.51 18.91C338.61 18.91 338.25 19.27 338.25 20.26C338.25 30.88 338.07 30.43 339.42 30.43C339.42 30.43 341.67 30.34 343.65 30.34C357.51 30.34 357.69 29.89 357.69 38.35C357.69 45.01 358.5 45.1 340.14 45.37C337.98 45.37 338.25 44.11 338.25 57.61C338.25 59.23 338.25 59.41 339.78 59.41C348.51 59.41 365.43 58.96 365.43 58.96C367.32 58.96 369.57 58.87 369.66 61.84C369.75 64.09 369.93 66.25 369.93 68.41C369.93 74.89 371.19 73.81 349.32 73.81C341.76 73.81 334.11 73.72 326.46 73.72C324.21 73.72 321.96 73.81 321.96 73.81C320.52 73.81 320.16 73.36 320.16 71.74C320.16 70.57 320.34 43.84 320.34 42.22V40.24H320.43C320.34 34.21 320.07 22.51 320.07 16.84ZM375.353 7.21C375.353 4.06 375.263 3.97 392.453 3.97C427.013 3.97 425.213 3.88 425.483 6.22C425.663 8.2 425.843 10.27 425.843 12.25C425.843 17.38 425.573 18.28 422.603 18.28C391.643 18.82 393.263 17.83 393.263 20.17C393.263 20.17 393.443 39.07 393.443 50.23V53.65C393.443 57.88 393.443 57.97 393.443 57.97C393.443 58.24 393.443 58.6 393.443 58.6C393.443 59.41 393.893 59.77 394.613 59.77C394.613 59.77 417.743 59.23 419.993 59.23C425.303 59.23 425.483 59.41 425.753 61.39C426.023 63.28 426.203 65.26 426.203 67.15C426.203 74.71 429.263 73.63 387.593 73.63C385.253 73.63 382.913 73.63 380.573 73.63C376.073 73.54 375.623 74.62 375.623 65.53C375.623 61.12 376.073 50.77 376.073 43.84C376.073 41.95 376.073 39.97 376.073 38.08C376.163 36.55 376.163 35.02 376.163 33.49C376.163 28.36 375.353 7.21 375.353 7.21ZM448.253 45.64C448.253 41.59 448.253 37.54 448.253 33.58C448.253 20.8 448.343 19.63 448.343 19.81C448.343 18.55 447.353 18.82 444.653 18.82C443.663 18.82 442.673 18.82 441.773 18.82C432.593 18.82 432.323 20.53 431.963 16.57C430.973 4.33 432.143 4.78 433.853 4.78C448.973 4.78 451.043 4.42 451.043 4.42L478.403 4.6C481.463 4.6 481.643 4.06 481.643 15.13C481.643 19.36 482.543 18.73 468.683 18.91C465.533 19 465.443 13.42 465.443 67.69C465.443 68.5 465.443 69.76 465.443 69.76C465.443 73.81 465.983 73.36 453.653 73.36C447.263 73.36 448.343 74.53 448.343 59.14C448.343 54.64 448.343 50.14 448.343 45.64C448.343 45.64 448.343 45.64 448.253 45.64ZM523.062 45.55C539.442 72.64 538.992 71.65 538.992 72.55C538.992 73.27 538.362 73.54 537.192 73.54C516.402 73.54 524.592 76.33 505.692 50.23C505.332 50.59 505.242 50.95 505.242 51.31C505.242 51.31 505.332 51.58 505.332 53.2C505.332 56.71 505.242 60.31 505.242 63.82C505.242 68.05 505.422 71.02 505.422 71.02C505.422 73.36 504.072 73.27 501.912 73.27C499.842 73.27 497.862 73.27 495.792 73.27C491.652 73.27 488.772 73.63 488.772 73.63C487.692 73.63 487.152 73 487.152 71.65C487.152 71.65 487.242 70.3 487.242 69.04C487.242 66.7 487.062 64.45 487.062 62.11C487.062 1.09 486.792 4.78 490.032 4.68999C512.802 4.23999 513.342 4.06 513.342 4.06C530.892 4.06 539.352 14.41 539.352 24.49C539.352 35.56 533.232 41.86 523.062 45.55ZM508.842 30.43C509.112 30.43 517.842 30.34 517.572 30.34C520.092 30.34 521.442 28.18 521.442 25.93C521.442 22.06 518.562 20.17 517.032 20.17C516.402 20.17 515.862 20.17 515.232 20.17C505.422 20.17 504.972 19.9 504.972 21.52C504.972 21.52 505.062 25.12 505.062 28.9C505.062 28.99 505.062 29.08 505.062 29.08C505.062 30.07 505.512 30.43 506.412 30.43C506.412 30.43 507.402 30.43 508.842 30.43ZM593.318 70.3C593.228 73.9 595.028 73.63 563.888 73.63C558.758 73.63 553.628 73.54 548.588 73.45C543.818 73.36 544.808 76.87 544.808 14.5C544.808 4.6 545.078 4.68999 547.598 4.33C550.388 4.06 560.828 3.61 561.008 3.61C562.988 3.61 562.718 4.96 562.718 17.02C562.718 24.58 562.088 58.24 562.088 58.24C562.088 59.77 562.268 59.95 563.798 59.95C577.748 59.95 576.488 59.95 576.488 57.88C576.488 41.86 576.308 15.4 576.308 15.4C576.308 4.33 576.308 4.68999 579.728 4.33C582.068 4.06 592.328 3.61 592.508 3.61C594.488 3.61 594.218 2.97999 594.218 25.84C594.218 29.26 593.408 65.98 593.318 70.3ZM662.2 4.51L681.64 4.6C681.64 67.51 681.91 65.35 681.91 65.35C681.91 72.91 682.09 73.27 679.93 73.36C671.11 73.63 665.8 73.72 665.26 73.72C663.91 73.72 663.91 73.54 663.73 71.83C662.92 65.26 663.73 52.84 663.73 19.9C663.73 19 663.37 18.64 662.38 18.64C662.38 18.64 662.65 18.64 653.29 18.64C649.51 18.64 649.42 18.46 649.42 19.9C649.42 20.35 649.87 52.84 649.87 53.11C649.87 60.04 649.6 60.04 646.27 60.04C630.43 60.04 631.24 60.85 631.24 55.81C631.24 15.13 631.51 18.01 630.16 18.01C615.67 18.01 617.29 18.19 617.29 19.9C616.93 30.07 616.48 39.07 616.48 49.24C616.48 55.81 616.66 70.66 616.66 70.66C616.66 73.81 617.56 73.27 602.08 73.27C599.11 73.27 599.92 73 599.92 43.03C599.92 27.37 599.65 38.44 599.65 8.82999C599.65 3.07 599.29 3.97 611.17 3.97C621.97 3.97 619.9 4.33 634.93 4.33C656.98 4.33 650.5 4.51 662.2 4.51ZM256.57 137.71C256.57 141.13 256.57 144.55 256.57 147.97C256.57 162.1 256.57 168.31 256.57 168.31C256.57 168.49 256.57 168.67 256.57 168.76C256.57 170.83 256.3 172.09 254.32 172.18C253.15 172.27 244.51 172.63 241.9 172.63C239.65 172.63 239.2 172 239.11 169.57C238.66 142.75 239.2 144.82 237.13 144.82C237.13 144.82 233.53 144.82 227.95 144.82C226.96 144.82 225.88 144.82 225.88 144.82C224.17 144.82 224.17 144.91 224.17 146.62C223.9 172.36 224.44 172 221.83 172.18C219.22 172.27 211.66 172.63 209.05 172.63C206.08 172.63 205.9 175.15 205.9 126.64C205.9 106.39 206.08 106.12 206.08 106.12V106.03C206.08 102.88 211.12 102.97 219.94 102.97C223.9 102.97 224.17 100.36 224.17 128.89C224.17 128.98 224.17 129.07 224.17 129.07C224.17 129.7 224.53 129.97 225.16 129.97C225.16 129.97 230.02 129.97 235.15 129.97C236.5 129.97 237.49 129.97 237.49 129.97C238.3 129.97 238.57 129.61 238.57 128.89C238.57 128.89 238.57 128.62 238.57 128.44C238.57 102.97 238.03 104.32 241 103.6C243.34 103.06 245.59 102.88 252.34 102.88C256.57 102.88 256.66 100.45 256.66 126.37C256.66 130.15 256.66 133.93 256.66 137.71C256.66 137.71 256.66 137.71 256.57 137.71ZM310.662 169.3C310.572 172.9 312.372 172.63 281.232 172.63C276.102 172.63 270.972 172.54 265.932 172.45C261.162 172.36 262.152 175.87 262.152 113.5C262.152 103.6 262.422 103.69 264.942 103.33C267.732 103.06 278.172 102.61 278.352 102.61C280.332 102.61 280.062 103.96 280.062 116.02C280.062 123.58 279.432 157.24 279.432 157.24C279.432 158.77 279.612 158.95 281.142 158.95C295.092 158.95 293.832 158.95 293.832 156.88C293.832 140.86 293.652 114.4 293.652 114.4C293.652 103.33 293.652 103.69 297.072 103.33C299.412 103.06 309.672 102.61 309.852 102.61C311.832 102.61 311.562 101.98 311.562 124.84C311.562 128.26 310.752 164.98 310.662 169.3ZM317.084 138.97C317.084 136.63 317.084 134.29 317.084 131.95C317.084 123.76 317.084 115.48 317.084 107.29C317.084 107.2 317.084 107.2 317.084 107.11C317.084 106.21 316.994 106.12 316.994 105.4C316.994 104.14 317.534 103.69 319.064 103.51C321.404 103.15 346.874 102.25 347.144 102.25C362.534 102.25 370.904 111.52 370.904 123.31C370.904 127.45 369.464 131.32 366.944 134.83C366.404 135.46 366.134 135.73 366.134 136.09C366.134 136.36 366.404 136.72 367.034 137.53C371.354 142.39 373.424 147.88 373.424 154C373.424 169.93 361.634 173.44 345.614 173.44C343.094 173.44 338.594 173.26 333.374 173.26C326.984 173.26 321.314 173.62 321.314 173.62C316.184 173.62 317.084 173.53 317.084 148.87C317.084 145.54 317.084 142.3 317.084 138.97ZM345.434 144.73C344.354 144.73 343.364 144.82 342.284 144.82C334.544 145.27 335.444 144.55 335.444 148.51C335.444 150.31 335.444 152.11 335.444 153.91C335.444 155.44 335.444 156.52 335.444 156.52C335.444 157.51 335.804 157.78 336.614 157.78C336.614 157.78 340.304 157.6 348.584 157.33C351.464 157.24 353.984 154.99 353.984 151.84C353.984 148.51 351.554 144.73 345.434 144.73ZM339.224 129.25C340.214 129.25 341.294 129.25 342.284 129.25C343.094 129.25 343.994 129.16 344.804 129.16C346.154 129.16 346.334 129.25 347.054 129.25C350.294 129.25 352.634 125.83 352.634 123.4C352.634 120.88 350.654 118.54 347.864 118.54C347.504 118.54 347.144 118.54 346.784 118.54C343.634 118.54 340.484 118.72 337.334 118.9C336.434 118.9 336.074 119.35 336.074 120.34C335.984 124.03 335.804 128.17 335.804 128.17C335.804 128.89 336.164 129.25 336.884 129.25C336.884 129.25 337.694 129.25 339.224 129.25Z" fill="url(#paint1_linear_168_39)"/>
<defs>
<linearGradient id="paint0_linear_168_39" x1="90" y1="1" x2="90" y2="180" gradientUnits="userSpaceOnUse">
<stop stop-color="#3DE0FC"/>
<stop offset="1" stop-color="#6A5BEE"/>
</linearGradient>
<linearGradient id="paint1_linear_168_39" x1="449.5" y1="1" x2="449.5" y2="180" gradientUnits="userSpaceOnUse">
<stop stop-color="#40DEFB"/>
<stop offset="1" stop-color="#6A5FEF"/>
</linearGradient>
</defs>
</svg>
