<svg width="1052" height="1054" viewBox="0 0 1052 1054" fill="none" xmlns="http://www.w3.org/2000/svg">
<path d="M691.322 0.161854C693.663 -0.0465064 696.061 0.00363844 698.411 0.00931015C793.466 -0.32353 884.573 37.9943 950.805 106.16C992.441 148.107 1022.63 200.018 1038.51 256.941C1051.31 304.19 1050.69 351.501 1050.69 399.967L1050.67 497.043L1050.44 762.559C1002.61 762.825 954.701 761.73 906.893 763.237C905.179 725.371 906.386 687.012 906.389 649.101L906.365 444.929C906.374 411.94 907.449 378.632 905.797 345.695C905.158 333.005 904.176 320.306 901.528 307.855C892.602 265.905 868.939 227.129 837.267 198.591C793.723 159.361 741.176 143.51 683.179 146.644C626.751 149.695 577.805 175.012 540.361 216.914C528.462 230.224 518.044 246.06 510.281 262.108C487.128 309.972 489.809 353.999 489.803 405.215C489.8 433.358 488.931 462.003 490.514 490.087C465.264 489.284 439.776 489.956 414.506 489.95C360.027 489.941 307.928 486.365 257.944 513.004C216.902 534.879 185.164 565.969 165.221 608.247C161.228 616.707 157.385 625.122 154.677 634.101C141.605 677.466 141.718 728.135 156.857 770.977C161.228 783.357 167.323 794.987 173.554 806.506C181.473 822.885 197.738 841.384 211.1 853.262C237.478 876.707 270.189 895.277 304.919 902.707C338.618 909.916 374.435 907.549 408.725 907.549L538.498 907.537L682.833 907.54C708.697 907.537 735.093 908.573 760.895 907.054C759.877 924.23 760.262 941.669 760.235 958.875L760.25 1052.6L499.349 1052.66L399.744 1052.68C352.598 1052.68 305.053 1053.51 259.045 1041.36C249.054 1038.72 239.428 1035.1 229.75 1031.51C183.08 1014.24 142.832 988.5 106.585 954.457C43.1936 894.919 2.82105 804.664 0.302997 717.854C-0.484101 690.72 0.0476992 662.86 4.48931 636.035C5.78462 628.214 7.98585 620.528 9.91956 612.841C12.6353 602.047 15.1943 591.157 18.8404 580.632C33.0727 539.545 58.2467 494.332 88.2068 462.75C103.361 446.773 119.219 431.167 136.621 417.627C182.405 381.999 239.771 357.68 297.146 349.136C312.766 346.811 328.603 346.014 344.378 345.605C345.086 332.288 345.531 318.691 347.224 305.467C356.898 230.83 390.454 161.325 442.888 107.318C508.161 40.0071 597.554 1.44784 691.322 0.161854Z" fill="url(#paint0_linear_163_11)"/>
<path d="M696.858 283.734C697.563 283.695 698.264 283.657 698.969 283.651C717.574 283.478 735.475 290.77 748.658 303.896C759.85 315.045 766.699 328.478 769.315 344.04C772.059 360.344 770.814 378.004 770.802 394.521L770.742 474.578L770.913 772.045C757.282 770.191 741.985 771.43 728.213 771.427L642.639 771.439L355.202 771.451C335.641 771.621 316.782 765.489 302.673 751.612C288.779 737.943 281.189 717.955 281.168 698.572C281.144 679.381 288.209 660.724 301.888 647.172C311.44 637.706 324.569 630.443 337.815 627.915C351.365 625.327 365.7 626.168 379.451 626.192L431.726 626.291L625.282 626.41L625.231 434.1L625.105 380.362C625.078 368.126 624.281 355.21 626.324 343.129C628.533 330.033 634.039 317.612 642.893 307.663C657.593 291.134 675.099 284.898 696.858 283.734Z" fill="url(#paint1_linear_163_11)"/>
<path d="M1049.97 907.052L1050.45 907.21C1051.04 908.061 1051.2 908.572 1051.25 909.616C1053.37 948.36 1050.08 987.871 1022.7 1017.76C1016.48 1024.56 1009.09 1030.17 1001.43 1035.24C970.156 1055.97 942.521 1051.4 907.314 1053.12C906.812 1052.41 906.663 1052.29 906.382 1051.33C905.062 1046.84 905.349 928.467 905.874 915.217C905.97 912.843 906.018 910.363 907.093 908.204C914.304 905.536 1029.25 908.407 1049.97 907.052Z" fill="url(#paint2_linear_163_11)"/>
<defs>
<linearGradient id="paint0_linear_163_11" x1="26.7125" y1="526.346" x2="1050.69" y2="526.346" gradientUnits="userSpaceOnUse">
<stop stop-color="#20D881"/>
<stop offset="0.239391" stop-color="#16BB6D"/>
<stop offset="0.58305" stop-color="#06B05E"/>
<stop offset="0.829207" stop-color="#0AB362"/>
<stop offset="1" stop-color="#0AB261"/>
</linearGradient>
<linearGradient id="paint1_linear_163_11" x1="293.624" y1="527.846" x2="771.094" y2="527.846" gradientUnits="userSpaceOnUse">
<stop stop-color="#20D881"/>
<stop offset="0.239391" stop-color="#16BB6D"/>
<stop offset="0.58305" stop-color="#06B05E"/>
<stop offset="0.829207" stop-color="#0AB362"/>
<stop offset="1" stop-color="#0AB261"/>
</linearGradient>
<linearGradient id="paint2_linear_163_11" x1="909.154" y1="980.07" x2="1051.78" y2="980.07" gradientUnits="userSpaceOnUse">
<stop stop-color="#20D881"/>
<stop offset="0.239391" stop-color="#16BB6D"/>
<stop offset="0.58305" stop-color="#06B05E"/>
<stop offset="0.829207" stop-color="#0AB362"/>
<stop offset="1" stop-color="#0AB261"/>
</linearGradient>
</defs>
</svg>
